<svg width="349" height="346" viewBox="0 0 349 346" fill="none" xmlns="http://www.w3.org/2000/svg">
<path fill-rule="evenodd" clip-rule="evenodd" d="M172.83 0C77.3779 0 0 77.2826 0 172.614C0 267.946 77.3779 345.228 172.83 345.228C213.083 345.228 250.123 331.484 279.5 308.438C257.129 320.879 231.362 327.967 203.939 327.967C118.032 327.967 48.3921 258.413 48.3921 172.614C48.3921 86.8143 118.032 17.2616 203.939 17.2616C231.362 17.2616 257.129 24.3489 279.5 36.7907C250.123 13.7439 213.083 0 172.83 0ZM210.367 310.705C286.73 310.705 348.633 248.88 348.633 172.614C348.633 96.3482 286.73 34.5232 210.367 34.5232C178.165 34.5232 148.534 45.5188 125.032 63.9551C142.93 54.0027 163.542 48.3321 185.48 48.3321C254.204 48.3321 309.917 103.976 309.917 172.614C309.917 241.253 254.204 296.896 185.48 296.896C163.542 296.896 142.93 291.226 125.032 281.273C148.534 299.71 178.165 310.705 210.367 310.705Z" fill="url(#paint0_linear_35_1495)"/>
<g clip-path="url(#clip0_35_1495)">
<path d="M228.762 156.821L244.353 191.653C229.071 230.737 221.432 250.379 221.434 250.577H214.732C214.529 249.91 202.482 221.807 178.59 166.267C173.507 178.233 161.473 206.337 142.487 250.58H136.029L82.3906 113.13H111.631C111.631 113.352 121.208 137.947 140.361 186.914L175.395 104.862L175.412 104.873H181.487C181.503 104.886 181.519 104.9 181.533 104.916C182.199 105.635 185.296 112.705 190.824 126.127C192.12 128.754 200.861 149.007 217.046 186.887L228.762 156.821Z" fill="white"/>
<path d="M240.353 127.088L255.966 161.972C252.556 170.683 249.399 178.752 246.495 186.178L230.9 151.336L240.353 127.088Z" fill="white"/>
<path d="M275.092 113.13C268.894 128.952 263.233 143.407 258.108 156.497L242.49 121.602L245.794 113.13H275.092Z" fill="white"/>
<path d="M181.481 104.873H181.459V104.862L181.481 104.873Z" fill="white"/>
</g>
<defs>
<linearGradient id="paint0_linear_35_1495" x1="174.316" y1="0" x2="174.316" y2="345.228" gradientUnits="userSpaceOnUse">
<stop stop-color="#F6BE00"/>
<stop offset="0.675" stop-color="#C850C0" stop-opacity="0.98"/>
<stop offset="1" stop-color="#4158D0"/>
</linearGradient>
<clipPath id="clip0_35_1495">
<rect width="192.701" height="145.718" fill="white" transform="translate(82.3906 104.862)"/>
</clipPath>
</defs>
</svg>
