<svg width="100%" height="100%" viewBox="0 0 1013 299" fill="none" xmlns="http://www.w3.org/2000/svg">
<path class="1" d="M79.2997 62.4709C79.7248 62.6835 82.3814 68.7672 87.2695 80.7219C88.4384 83.1128 96.7536 102.533 112.215 138.981H112.454L139.312 69.5641H159.078C128.58 147.987 113.331 187.331 113.331 187.597H112.853C112.693 187.013 101.589 160.925 79.5388 109.333H79.2997C79.2997 109.546 68.1951 135.714 45.9858 187.836H45.8265L0 69.5641H19.7652C19.7652 69.7766 28.7179 92.9157 46.6235 138.981H46.8625L79.2997 62.4709Z" fill="white"/>
<path class="2" d="M203.443 69.644H308.007V89.1701H223.368C223.102 89.1701 222.969 89.3029 222.969 89.5686V163.927C222.969 164.193 223.102 164.326 223.368 164.326H308.007V183.852H203.443V69.644ZM229.106 112.283H299.32V132.048H229.106V112.283Z" fill="white"/>
<path class="3" d="M356.357 69.5645H414.218C426.545 69.5645 435.79 75.4622 441.953 87.2575C443.919 91.88 444.902 96.1571 444.902 100.089V103.038C444.902 108.032 443.627 113.159 441.077 118.419H441.236C447.984 121.979 452.978 128.488 456.219 137.945C457.122 141.612 457.574 144.826 457.574 147.589V150.777C457.574 159.119 454.732 166.77 449.046 173.73C442.936 180.478 435.285 183.852 426.093 183.852H356.357L356.357 69.5645ZM375.883 89.0906V114.514H414.617C419.664 114.514 423.118 111.618 424.978 105.827C425.296 104.286 425.456 102.905 425.456 101.683C425.456 96.1571 423.145 92.2519 418.522 89.9672C416.769 89.3827 414.936 89.0906 413.023 89.0906H375.883ZM375.883 134.279V163.847C375.937 164.166 376.096 164.326 376.362 164.326H424.978C430.45 164.326 434.116 162.253 435.976 158.109C437.357 155.559 438.048 152.743 438.048 149.661V149.422C438.048 141.558 435.073 136.591 429.122 134.518C428.272 134.359 427.581 134.279 427.05 134.279H375.883Z" fill="white"/>
<path class="4" d="M739.07 70.1765H758.676V138.558C758.676 152.903 767.469 162.52 785.056 167.408C789.147 168.152 792.521 168.524 795.178 168.524H797.25C808.726 168.524 818.423 164.991 826.34 157.924C830.643 152.93 832.955 148.998 833.274 146.129C834.071 143.791 834.469 139.806 834.469 134.174V70.1765H854.075V137.123C854.075 160.342 842.226 176.281 818.529 184.942C810.825 187.227 803.493 188.369 796.533 188.369C779.477 188.369 765.025 183.056 753.177 172.429C743.773 162.812 739.07 152.053 739.07 140.151V70.1765Z" fill="white"/>
<path class="5" d="M904.02 70.1765H966.901C987.145 70.1765 1001.22 79.7403 1009.14 98.8679C1011.11 104.659 1012.09 110.398 1012.09 116.083C1012.09 131.969 1005.82 144.668 993.282 154.178C986.321 159.385 976.598 161.989 964.112 161.989H923.546V184.464H904.02L904.02 70.1765ZM923.546 90.1808V142.224H968.256C977.979 142.224 985.179 137.628 989.855 128.436C991.661 123.92 992.564 119.802 992.564 116.083C992.564 105.775 988.287 97.9646 979.733 92.6514C976.067 90.6855 971.099 89.7026 964.829 89.7026H924.024C923.705 89.7557 923.546 89.9151 923.546 90.1808Z" fill="white"/>
<path class="6" d="M551 73H656C655.499 73.5025 644.133 82.4459 621.901 99.8305C622.102 99.931 622.277 99.9812 622.427 99.9812C630.489 99.9812 637.999 103.549 644.959 110.683C652.069 118.974 655.624 128.796 655.624 140.151V140.905C655.624 154.622 650.617 165.776 640.603 174.368C634.394 178.789 627.509 181 619.949 181H551V162.535H618.822C627.134 162.535 632.692 158.541 635.496 150.552C636.647 146.985 637.223 143.568 637.223 140.302C637.223 131.962 634.369 125.43 628.661 120.707C626.508 119.049 622.227 118.22 615.818 118.22C589.28 117.617 574.058 117.315 570.152 117.315C569.902 117.165 569.702 117.089 569.551 117.089V116.939C570.002 116.738 574.058 113.623 581.719 107.593C594.537 97.6449 601.347 92.2687 602.148 91.4648H551L551 73Z" fill="white"/>
<path class="logo_left_grad" d="M507.841 124.5C507.824 104.989 512.905 85.8119 522.581 68.8686C532.256 51.9252 546.189 37.8033 563.001 27.9014C579.813 17.9996 598.92 12.6614 618.43 12.4156C637.939 12.1698 657.175 17.0249 674.231 26.5C658.616 14.2832 640.31 5.9729 620.834 2.26105C601.359 -1.45081 581.279 -0.456861 562.266 5.16015C543.252 10.7772 525.856 20.8547 511.524 34.5539C497.193 48.253 486.341 65.1774 479.872 83.9182C473.404 102.659 471.505 122.674 474.335 142.296C477.165 161.919 484.641 180.582 496.141 196.731C507.642 212.881 522.833 226.049 540.452 235.141C558.07 244.233 577.605 248.984 597.431 249C625.287 249.044 652.345 239.694 674.231 222.46C657.175 231.935 637.939 236.79 618.43 236.544C598.92 236.299 579.813 230.96 563.001 221.059C546.189 211.157 532.256 197.035 522.581 180.091C512.905 163.148 507.824 143.971 507.841 124.46V124.5Z" fill="url(#paint0_linear_35_1551)"/>
<path class="logo_right_grad" d="M624.45 24.9001C602.162 24.8622 580.512 32.3419 563 46.1301C576.646 38.5536 592.033 34.6712 607.64 34.8672C623.246 35.0632 638.531 39.3307 651.982 47.2475C665.433 55.1643 676.584 66.4561 684.331 80.0054C692.079 93.5548 696.154 108.892 696.154 124.5C696.154 140.108 692.079 155.445 684.331 168.995C676.584 182.544 665.433 193.836 651.982 201.753C638.531 209.67 623.246 213.937 607.64 214.133C592.033 214.329 576.646 210.447 563 202.87C575.492 212.646 590.139 219.297 605.721 222.268C621.302 225.239 637.369 224.444 652.581 219.951C667.794 215.457 681.713 207.394 693.18 196.433C704.647 185.473 713.329 171.931 718.504 156.936C723.678 141.941 725.196 125.927 722.931 110.227C720.665 94.5274 714.682 79.5958 705.478 66.6759C696.275 53.756 684.119 43.2216 670.021 35.9498C655.923 28.6781 640.293 24.8794 624.43 24.8701L624.45 24.9001Z" fill="url(#paint1_linear_35_1551)"/>
<defs>
<linearGradient id="paint0_linear_35_1551" x1="573.611" y1="2.54262e-05" x2="573.611" y2="249" gradientUnits="userSpaceOnUse">
<stop stop-color="#F6BE00"/>
<stop offset="0.68" stop-color="#C850C0" stop-opacity="0.98"/>
<stop offset="1" stop-color="#4158D0"/>
</linearGradient>
<linearGradient id="paint1_linear_35_1551" x1="643.51" y1="24.9001" x2="643.51" y2="224.1" gradientUnits="userSpaceOnUse">
<stop stop-color="#F6BE00"/>
<stop offset="0.68" stop-color="#C850C0" stop-opacity="0.98"/>
<stop offset="1" stop-color="#4158D0"/>
</linearGradient>
</defs>
</svg>
