<svg width="100%" height="100%" viewBox="-1 -1 30 16" fill="none" xmlns="http://www.w3.org/2000/svg" xmlns:xlink="http://www.w3.org/1999/xlink">
	<defs/>
	<path id="Vector" d="M14 11.91L1.63 -0.12C1.53 -0.22 1.41 -0.3 1.28 -0.35C1.15 -0.4 1.01 -0.43 0.87 -0.43C0.73 -0.43 0.59 -0.4 0.47 -0.34C0.34 -0.29 0.22 -0.21 0.12 -0.11C0.02 -0.01 -0.05 0.11 -0.11 0.24C-0.16 0.37 -0.18 0.51 -0.18 0.65C-0.18 0.79 -0.15 0.93 -0.09 1.06C-0.03 1.19 0.05 1.3 0.15 1.4L13.25 14.15C13.45 14.34 13.72 14.45 14 14.45C14.27 14.45 14.54 14.34 14.74 14.15L27.84 1.4C27.94 1.3 28.02 1.19 28.08 1.06C28.14 0.93 28.17 0.79 28.17 0.65C28.17 0.51 28.15 0.37 28.1 0.24C28.04 0.11 27.97 -0.01 27.87 -0.11C27.77 -0.21 27.65 -0.29 27.52 -0.34C27.4 -0.4 27.26 -0.43 27.12 -0.43C26.98 -0.43 26.84 -0.4 26.71 -0.35C26.58 -0.3 26.46 -0.22 26.36 -0.12L14 11.91Z" fill="#D9D9D9" fill-opacity="1.000000" fill-rule="nonzero"/>
</svg>
