<svg width="100%" height="100%" viewBox="0 0 38 24" fill="none" xmlns="http://www.w3.org/2000/svg" xmlns:xlink="http://www.w3.org/1999/xlink">
	<defs>
		<clipPath id="clip2284_245">
			<rect id="eye" width="38.000000" height="24.000000" fill="white" fill-opacity="0"/>
		</clipPath>
	</defs>
	<rect id="eye" width="38.000000" height="24.000000" fill="#FFFFFF" fill-opacity="0"/>
	<g clip-path="url(#clip2284_245)">
		<path id="Vector" d="M2.71 11.99C8.14 17.33 11.76 22.66 19 22.66C26.23 22.66 29.85 17.33 35.28 11.99C29.85 6.66 26.23 1.33 19 1.33C11.76 1.33 8.14 6.66 2.71 11.99Z" stroke="#6C6C68" stroke-opacity="1.000000" stroke-width="1.500000"/>
		<path id="Vector" d="M15.23 13.53C15.44 14.01 15.74 14.45 16.12 14.82C16.49 15.19 16.94 15.49 17.44 15.69C17.93 15.89 18.46 16 19 16C19.53 16 20.06 15.89 20.55 15.69C21.05 15.49 21.5 15.19 21.87 14.82C22.25 14.45 22.55 14.01 22.76 13.53C22.96 13.04 23.07 12.52 23.07 12C23.07 11.47 22.96 10.95 22.76 10.46C22.55 9.98 22.25 9.54 21.87 9.17C21.5 8.8 21.05 8.5 20.55 8.3C20.06 8.1 19.53 8 19 8C18.46 8 17.93 8.1 17.44 8.3C16.94 8.5 16.49 8.8 16.12 9.17C15.74 9.54 15.44 9.98 15.23 10.46C15.03 10.95 14.92 11.47 14.92 12C14.92 12.52 15.03 13.04 15.23 13.53Z" stroke="#6C6C68" stroke-opacity="1.000000" stroke-width="1.500000"/>
	</g>
</svg>
