<svg width="100%" height="100%" viewBox="0 0 21 21" fill="none" xmlns="http://www.w3.org/2000/svg" xmlns:xlink="http://www.w3.org/1999/xlink">
	<defs/>
	<path id="Vector" d="M14.66 13.5C16.19 13.5 17.48 14.47 17.96 15.83L19.33 15.83C19.64 15.83 19.93 15.95 20.15 16.17C20.37 16.39 20.5 16.69 20.5 17C20.5 17.3 20.37 17.6 20.15 17.82C19.93 18.04 19.64 18.16 19.33 18.16L17.96 18.16C17.72 18.84 17.28 19.44 16.68 19.85C16.09 20.27 15.39 20.5 14.66 20.5C13.94 20.5 13.23 20.27 12.64 19.85C12.05 19.44 11.6 18.84 11.36 18.16L0.66 18.16C0.35 18.16 0.06 18.04 -0.16 17.82C-0.38 17.6 -0.5 17.3 -0.5 17C-0.5 16.69 -0.38 16.39 -0.16 16.17C0.06 15.95 0.35 15.83 0.66 15.83L11.36 15.83C11.6 15.15 12.05 14.55 12.64 14.14C13.23 13.72 13.94 13.49 14.66 13.5ZM5.33 6.5C6.02 6.49 6.69 6.7 7.26 7.08C7.83 7.46 8.28 8 8.55 8.63L8.63 8.83L19.33 8.83C19.63 8.83 19.91 8.94 20.13 9.15C20.34 9.35 20.47 9.63 20.49 9.93C20.51 10.22 20.41 10.52 20.22 10.74C20.03 10.97 19.76 11.12 19.46 11.15L19.33 11.16L8.63 11.16C8.39 11.83 7.96 12.41 7.39 12.82C6.82 13.24 6.14 13.47 5.44 13.49C4.73 13.52 4.04 13.32 3.44 12.94C2.85 12.56 2.38 12.01 2.11 11.36L2.03 11.16L0.66 11.16C0.36 11.16 0.08 11.05 -0.14 10.84C-0.35 10.64 -0.48 10.36 -0.5 10.06C-0.52 9.77 -0.42 9.47 -0.23 9.25C-0.04 9.02 0.23 8.87 0.53 8.84L0.66 8.83L2.03 8.83C2.27 8.15 2.72 7.55 3.31 7.14C3.9 6.72 4.6 6.49 5.33 6.5ZM14.66 -0.5C16.19 -0.5 17.48 0.47 17.96 1.83L19.33 1.83C19.64 1.83 19.93 1.95 20.15 2.17C20.37 2.39 20.5 2.69 20.5 3C20.5 3.3 20.37 3.6 20.15 3.82C19.93 4.04 19.64 4.16 19.33 4.16L17.96 4.16C17.72 4.84 17.28 5.44 16.68 5.85C16.09 6.27 15.39 6.5 14.66 6.5C13.94 6.5 13.23 6.27 12.64 5.85C12.05 5.44 11.6 4.84 11.36 4.16L0.66 4.16C0.35 4.16 0.06 4.04 -0.16 3.82C-0.38 3.6 -0.5 3.3 -0.5 3C-0.5 2.69 -0.38 2.39 -0.16 2.17C0.06 1.95 0.35 1.83 0.66 1.83L11.36 1.83C11.6 1.15 12.05 0.55 12.64 0.14C13.23 -0.28 13.94 -0.51 14.66 -0.5Z" fill="#00B7A1" fill-opacity="1.000000" fill-rule="nonzero"/>
</svg>
