<svg width="100%" height="100%" viewBox="0 0 15 17" fill="none" xmlns="http://www.w3.org/2000/svg" xmlns:xlink="http://www.w3.org/1999/xlink">
	<defs/>
	<path id="Vector" d="M7 -0.25C6 -0.25 5.05 0.14 4.34 0.84C3.64 1.55 3.25 2.5 3.25 3.5C3.25 4.49 3.64 5.44 4.34 6.15C5.05 6.85 6 7.25 7 7.25C7.99 7.25 8.94 6.85 9.65 6.15C10.35 5.44 10.75 4.49 10.75 3.5C10.75 2.5 10.35 1.55 9.65 0.84C8.94 0.14 7.99 -0.25 7 -0.25ZM3 9.25C2 9.25 1.05 9.64 0.34 10.34C-0.36 11.05 -0.75 12 -0.75 13L-0.75 14.18C-0.75 14.94 -0.21 15.58 0.54 15.7C4.81 16.4 9.18 16.4 13.46 15.7C13.82 15.64 14.14 15.46 14.38 15.18C14.62 14.9 14.75 14.55 14.75 14.18L14.75 13C14.75 12 14.35 11.05 13.65 10.34C12.94 9.64 11.99 9.25 11 9.25L10.66 9.25C10.47 9.25 10.29 9.27 10.11 9.33L9.25 9.61C7.78 10.09 6.21 10.09 4.75 9.61L3.88 9.33C3.7 9.27 3.52 9.25 3.34 9.25L3 9.25Z" fill="#FFFFFF" fill-opacity="1.000000" fill-rule="nonzero"/>
</svg>
