<svg width="100%" height="100%" viewBox="0 0 36 30" fill="none" xmlns="http://www.w3.org/2000/svg" xmlns:xlink="http://www.w3.org/1999/xlink">
	<defs/>
	<path id="Vector" d="M32.43 0.26C32.43 0.26 35.76 -1.04 35.48 2.11C35.39 3.41 34.55 7.96 33.91 12.87L31.69 27.44C31.69 27.44 31.5 29.57 29.84 29.94C28.17 30.31 25.67 28.64 25.21 28.27C24.84 27.99 18.27 23.82 15.96 21.78C15.31 21.22 14.57 20.11 16.05 18.81L25.77 9.54C26.88 8.42 27.99 5.82 23.36 8.98L10.41 17.79C10.41 17.79 8.93 18.72 6.15 17.88L0.14 16.03C0.14 16.03 -2.08 14.64 1.71 13.24C10.96 8.89 22.34 4.43 32.43 0.26L32.43 0.26Z" fill="#FFFFFF" fill-opacity="1.000000" fill-rule="nonzero"/>
</svg>
