<svg width="100%" height="100%" viewBox="0 -1 25 25" fill="none" xmlns="http://www.w3.org/2000/svg" xmlns:xlink="http://www.w3.org/1999/xlink">
	<defs/>
	<path id="Vector" d="M12.18 -0.5C9.77 -0.5 7.42 0.21 5.41 1.55C3.41 2.89 1.85 4.79 0.92 7.02C0 9.25 -0.24 11.7 0.23 14.06C0.7 16.42 1.86 18.6 3.56 20.3C5.27 22 7.44 23.17 9.8 23.64C12.17 24.11 14.62 23.86 16.85 22.94C19.07 22.02 20.98 20.46 22.32 18.45C23.66 16.45 24.37 14.09 24.37 11.68C24.37 8.45 23.08 5.35 20.8 3.07C18.51 0.78 15.41 -0.5 12.18 -0.5ZM18.75 12.62L12.18 12.62C11.93 12.62 11.7 12.52 11.52 12.35C11.34 12.17 11.25 11.93 11.25 11.68L11.25 5.12C11.25 4.87 11.34 4.63 11.52 4.46C11.7 4.28 11.93 4.18 12.18 4.18C12.43 4.18 12.67 4.28 12.85 4.46C13.02 4.63 13.12 4.87 13.12 5.12L13.12 10.75L18.75 10.75C18.99 10.75 19.23 10.84 19.41 11.02C19.58 11.2 19.68 11.43 19.68 11.68C19.68 11.93 19.58 12.17 19.41 12.35C19.23 12.52 18.99 12.62 18.75 12.62Z" fill="#4B4B4B" fill-opacity="1.000000" fill-rule="nonzero"/>
</svg>
