<svg width="100%" height="100%" viewBox="0 -2 22 22" fill="none" xmlns="http://www.w3.org/2000/svg" xmlns:xlink="http://www.w3.org/1999/xlink">
	<defs/>
	<path id="Vector" d="M2.96 2.86C2.14 2.86 1.37 3.18 0.79 3.76C0.22 4.33 -0.1 5.11 -0.1 5.92L-0.1 15.94C-0.1 16.75 0.22 17.53 0.79 18.1C1.37 18.67 2.14 19 2.96 19L18.53 19C19.35 19 20.12 18.67 20.7 18.1C21.27 17.53 21.59 16.75 21.59 15.94L21.59 5.92C21.59 5.11 21.27 4.33 20.7 3.76C20.12 3.18 19.35 2.86 18.53 2.86L2.96 2.86ZM15.75 9.54C15.38 9.54 15.03 9.68 14.77 9.94C14.51 10.21 14.36 10.56 14.36 10.93C14.36 11.3 14.51 11.65 14.77 11.91C15.03 12.17 15.38 12.32 15.75 12.32C16.12 12.32 16.47 12.17 16.74 11.91C17 11.65 17.14 11.3 17.14 10.93C17.14 10.56 17 10.21 16.74 9.94C16.47 9.68 16.12 9.54 15.75 9.54Z" fill="#009CEC" fill-opacity="1.000000" fill-rule="evenodd"/>
	<path id="Vector" d="M15.74 -0.68C16.06 -0.77 16.41 -0.78 16.74 -0.71C17.08 -0.64 17.39 -0.5 17.66 -0.29C17.93 -0.09 18.15 0.18 18.3 0.49C18.45 0.79 18.53 1.13 18.53 1.47L7.41 1.47L15.74 -0.68Z" fill="#009CEC" fill-opacity="1.000000" fill-rule="nonzero"/>
</svg>
