<svg width="100%" height="100%" viewBox="-1 0 18 22" fill="none" xmlns="http://www.w3.org/2000/svg" xmlns:xlink="http://www.w3.org/1999/xlink">
	<defs/>
	<path id="Vector" d="M3.64 0.05C3.82 -0.35 4.22 -0.62 4.67 -0.62L13.53 -0.62C14.37 -0.62 14.91 0.26 14.54 1.01L12.02 6.05L15.75 6.05C16.75 6.05 17.25 7.26 16.54 7.97L3.26 21.25C2.42 22.09 1.03 21.22 1.4 20.1L4.23 11.61L0.23 11.61C0.05 11.61 -0.14 11.56 -0.3 11.47C-0.47 11.38 -0.61 11.25 -0.71 11.1C-0.81 10.94 -0.87 10.76 -0.88 10.57C-0.9 10.39 -0.87 10.2 -0.79 10.03L3.64 0.05Z" fill="#4B4B4B" fill-opacity="1.000000" fill-rule="evenodd"/>
</svg>
